<svg width="32" height="32" viewBox="0 0 32 32" fill="none" xmlns="http://www.w3.org/2000/svg">
<path d="M28.8209 5.03719C27.1583 3.37039 24.9545 2.35293 22.6075 2.16893C20.2604 1.98479 17.9248 2.64613 16.0228 4.03346C14.0272 2.54919 11.5435 1.87613 9.0716 2.14986C6.5996 2.42359 4.3232 3.62373 2.7008 5.50866C1.0784 7.39359 0.230265 9.82319 0.327465 12.3084C0.424799 14.7935 1.46 17.1495 3.22467 18.9017L12.9644 28.6572C13.78 29.46 14.8785 29.9099 16.0228 29.9099C17.1671 29.9099 18.2656 29.46 19.0812 28.6572L28.8209 18.9017C30.652 17.0593 31.68 14.5672 31.68 11.9696C31.68 9.37186 30.652 6.87973 28.8209 5.03719ZM26.6095 16.7375L16.8697 26.4772C16.7589 26.5892 16.6269 26.6779 16.4816 26.7387C16.3363 26.7992 16.1803 26.8305 16.0228 26.8305C15.8652 26.8305 15.7093 26.7992 15.564 26.7387C15.4185 26.6779 15.2867 26.5892 15.1759 26.4772L5.43613 16.6904C4.20613 15.4331 3.51733 13.7441 3.51733 11.9852C3.51733 10.2263 4.20613 8.53733 5.43613 7.27999C6.68947 6.04253 8.38 5.34866 10.1413 5.34866C11.9027 5.34866 13.5931 6.04253 14.8465 7.27999C14.9923 7.42706 15.1657 7.54373 15.3569 7.62333C15.5481 7.70293 15.7531 7.74399 15.9601 7.74399C16.1672 7.74399 16.3721 7.70293 16.5632 7.62333C16.7544 7.54373 16.9279 7.42706 17.0737 7.27999C18.3269 6.04253 20.0175 5.34866 21.7789 5.34866C23.5401 5.34866 25.2307 6.04253 26.4841 7.27999C27.7309 8.52079 28.4424 10.2007 28.4657 11.9596C28.4893 13.7185 27.8229 15.4168 26.6096 16.6904L26.6095 16.7375Z" fill="black"/>
</svg>
