<svg width="24" height="28" viewBox="0 0 24 28" fill="none" xmlns="http://www.w3.org/2000/svg">
<path fill-rule="evenodd" clip-rule="evenodd" d="M12 15.3334C15.1947 15.3334 18.1 16.2587 20.2373 17.5627C21.304 18.2134 22.216 18.9814 22.8747 19.816C23.5227 20.636 24 21.6174 24 22.6667C24 23.7934 23.452 24.6814 22.6627 25.3147C21.916 25.9147 20.9307 26.312 19.884 26.5894C17.78 27.1454 14.972 27.3334 12 27.3334C9.028 27.3334 6.22 27.1467 4.116 26.5894C3.06933 26.312 2.084 25.9147 1.33733 25.3147C0.546667 24.68 0 23.7934 0 22.6667C0 21.6174 0.477333 20.636 1.12533 19.8147C1.784 18.9814 2.69467 18.2147 3.76267 17.5614C5.9 16.26 8.80667 15.3334 12 15.3334ZM12 18C9.30267 18 6.876 18.7867 5.152 19.8387C4.28933 20.364 3.63867 20.9347 3.21867 21.468C2.78667 22.0147 2.66667 22.428 2.66667 22.6667C2.66667 22.8294 2.716 23.0014 3.00667 23.2347C3.33867 23.5014 3.916 23.7774 4.79867 24.0107C6.556 24.4774 9.08133 24.6667 12 24.6667C14.92 24.6667 17.444 24.476 19.2 24.0107C20.084 23.7774 20.6613 23.5014 20.9933 23.2347C21.284 23.0014 21.3333 22.8294 21.3333 22.6667C21.3333 22.4267 21.2133 22.0147 20.7827 21.468C20.3613 20.9347 19.7107 20.364 18.848 19.8387C17.124 18.7854 14.6973 18 12 18ZM12 0.666687C13.7681 0.666687 15.4638 1.36907 16.714 2.61931C17.9643 3.86955 18.6667 5.56524 18.6667 7.33335C18.6667 9.10146 17.9643 10.7972 16.714 12.0474C15.4638 13.2976 13.7681 14 12 14C10.2319 14 8.5362 13.2976 7.28595 12.0474C6.03571 10.7972 5.33333 9.10146 5.33333 7.33335C5.33333 5.56524 6.03571 3.86955 7.28595 2.61931C8.5362 1.36907 10.2319 0.666687 12 0.666687ZM12 3.33335C10.9391 3.33335 9.92172 3.75478 9.17157 4.50493C8.42143 5.25507 8 6.27249 8 7.33335C8 8.39422 8.42143 9.41163 9.17157 10.1618C9.92172 10.9119 10.9391 11.3334 12 11.3334C13.0609 11.3334 14.0783 10.9119 14.8284 10.1618C15.5786 9.41163 16 8.39422 16 7.33335C16 6.27249 15.5786 5.25507 14.8284 4.50493C14.0783 3.75478 13.0609 3.33335 12 3.33335Z" fill="black"/>
</svg>
