<svg width="22" height="22" viewBox="0 0 32 32" fill="none" xmlns="http://www.w3.org/2000/svg">
<g clip-path="url(#clip0_181_534)">
<path d="M18.4123 2.73238C18.4123 1.39807 17.3343 0.320068 16 0.320068C14.6657 0.320068 13.5877 1.39807 13.5877 2.73238V13.5878H2.73231C1.39801 13.5878 0.320007 14.6658 0.320007 16.0001C0.320007 17.3344 1.39801 18.4124 2.73231 18.4124H13.5877V29.2678C13.5877 30.6021 14.6657 31.6801 16 31.6801C17.3343 31.6801 18.4123 30.6021 18.4123 29.2678V18.4124H29.2677C30.602 18.4124 31.68 17.3344 31.68 16.0001C31.68 14.6658 30.602 13.5878 29.2677 13.5878H18.4123V2.73238Z" fill="current"/>
</g>
<defs>
<clipPath id="clip0_181_534">
<rect width="32" height="32" fill="white"/>
</clipPath>
</defs>
</svg>
