<svg width="20" height="20" viewBox="0 0 33 32" fill="none" xmlns="http://www.w3.org/2000/svg">
<g clip-path="url(#clip0_170_529)">
<path fill-rule="evenodd" clip-rule="evenodd" d="M5.09378 13.742C5.09378 10.504 5.99737 8.29709 7.397 6.89748C8.79661 5.49787 11.0035 4.59426 14.2415 4.59426C17.4794 4.59426 19.6864 5.49787 21.086 6.89748C22.4856 8.29709 23.3892 10.504 23.3892 13.742C23.3892 16.9799 22.4856 19.1869 21.086 20.5865C19.6864 21.9861 17.4794 22.8898 14.2415 22.8898C11.0035 22.8898 8.79661 21.9861 7.397 20.5865C5.99737 19.1869 5.09378 16.9799 5.09378 13.742ZM14.2415 0.0228271C10.1621 0.0228271 6.65225 1.17724 4.1645 3.665C1.67675 6.15275 0.522339 9.66255 0.522339 13.742C0.522339 17.8214 1.67675 21.3312 4.1645 23.8189C6.65225 26.3067 10.1621 27.4612 14.2415 27.4612C17.4243 27.4612 20.2604 26.7583 22.5349 25.2678L28.5631 31.2966C29.4559 32.1892 30.903 32.1892 31.7958 31.2966C32.6884 30.4041 32.6884 28.9567 31.7958 28.0642L25.7674 22.0354C27.258 19.761 27.9606 16.9249 27.9606 13.742C27.9606 9.66255 26.8063 6.15275 24.3185 3.665C21.8307 1.17724 18.3209 0.0228271 14.2415 0.0228271Z" fill="current"/>
</g>
<defs>
<clipPath id="clip0_170_529">
<rect width="32" height="32" fill="white" transform="translate(0.5)"/>
</clipPath>
</defs>
</svg>
